<?xml version="1.0" standalone="no"?>
<!DOCTYPE svg PUBLIC "-//W3C//DTD SVG 20010904//EN"
 "http://www.w3.org/TR/2001/REC-SVG-20010904/DTD/svg10.dtd">
<svg version="1.0" xmlns="http://www.w3.org/2000/svg"
 width="260.000000pt" height="260.000000pt" viewBox="0 0 260.000000 260.000000"
 preserveAspectRatio="xMidYMid meet">
<metadata>
Created by potrace 1.11, written by Peter Selinger 2001-2013
</metadata>
<g transform="translate(0.000000,260.000000) scale(0.100000,-0.100000)"
fill="#000000" stroke="none">
<path d="M565 2521 c-52 -41 -63 -56 -82 -112 -45 -130 -15 -347 77 -555 21
-48 37 -91 35 -94 -2 -4 -66 -10 -142 -13 -160 -6 -233 -27 -295 -86 -36 -34
-39 -40 -44 -111 -6 -68 -4 -81 19 -125 31 -62 113 -143 193 -193 95 -58 98
-61 78 -83 -9 -10 -38 -32 -63 -49 -25 -16 -62 -49 -81 -72 -19 -23 -42 -48
-50 -57 -75 -80 -130 -195 -130 -270 0 -42 6 -56 41 -101 58 -73 109 -95 224
-93 104 1 228 33 352 90 41 19 79 31 83 26 4 -4 4 -50 0 -102 -8 -93 -2 -169
19 -247 14 -51 74 -132 108 -145 91 -35 201 25 300 164 30 43 60 76 66 74 5
-1 28 -39 51 -82 56 -112 157 -213 244 -245 55 -20 68 -21 103 -11 93 28 162
136 179 281 6 47 10 131 9 188 -1 57 1 106 4 108 3 3 18 -1 34 -9 41 -21 167
-58 250 -73 86 -15 160 -7 220 24 70 36 109 146 87 245 -26 122 -212 344 -381
453 -28 19 -54 38 -57 42 -6 10 46 54 113 97 66 41 172 132 208 179 17 22 42
55 56 71 76 96 120 212 110 294 -5 47 -13 61 -52 103 -60 64 -121 83 -235 75
-91 -6 -249 -56 -339 -107 -30 -16 -56 -30 -58 -30 -2 0 -4 73 -4 163 0 188
-12 237 -73 303 -34 37 -44 41 -99 47 -53 6 -67 3 -109 -19 -27 -14 -69 -44
-92 -67 -49 -47 -127 -162 -150 -219 -8 -21 -20 -38 -27 -38 -15 0 -43 32 -93
106 -38 56 -148 164 -250 242 -73 57 -143 82 -225 81 -71 0 -73 -1 -132 -48z
m769 -892 c32 -6 75 -19 95 -30 80 -41 163 -156 176 -245 7 -47 -17 -169 -44
-222 -26 -51 -101 -118 -159 -143 -68 -30 -150 -35 -214 -15 -274 87 -321 458
-78 611 38 24 115 51 156 54 6 1 36 -4 68 -10z m-175 -954 c5 -38 20 -101 31
-139 28 -89 22 -123 -31 -194 -114 -156 -217 -184 -283 -79 -36 56 -44 256
-15 359 9 36 63 98 84 98 6 0 51 41 100 90 l90 90 7 -78 c3 -42 11 -108 17
-147z"/>
</g>
</svg>
